<svg width="60" height="60" viewBox="0 0 48 48" fill="none" xmlns="http://www.w3.org/2000/svg">
    <path fill-rule="evenodd" clip-rule="evenodd" d="M16.3683 29.3033C15.9777 29.6938 15.9777 30.327 16.3683 30.7175C16.7578 31.107 17.3887 31.108 17.7794 30.7206C17.7804 30.7195 17.7815 30.7185 17.7825 30.7175L19.8194 28.6806L21.2864 27.2135L22.8579 25.6421L25.6421 22.8579L27.3462 21.1538L28.7916 19.7084L31.2175 17.2825C31.2185 17.2815 31.2196 17.2804 31.2206 17.2794C31.608 16.8886 31.607 16.2578 31.2175 15.8683C30.827 15.4777 30.1938 15.4777 29.8033 15.8683L26.9801 18.6915C26.0488 18.2768 25.0398 18 24 18C21.9641 18 20.0459 19.0611 18.5989 20.1413C17.1263 21.2406 15.9911 22.4742 15.4988 23.0423C15.0205 23.5941 15.0205 24.4059 15.4988 24.9577C15.9405 25.4674 16.8995 26.5126 18.1555 27.5161L16.3683 29.3033ZM29.7399 21.5885C29.7387 21.5897 29.7374 21.591 29.7362 21.5922C29.735 21.5934 29.7338 21.5946 29.7326 21.5958C29.3249 22.0077 29.355 22.6789 29.7744 23.0799C30.1339 23.4235 30.439 23.7418 30.6757 24C30.1441 24.58 29.2672 25.4629 28.2047 26.256C26.8681 27.2538 25.3827 28 24 28C23.9596 28 23.919 27.9994 23.8784 27.9981C23.563 27.9883 23.2475 28.0833 23.0234 28.305C23.0221 28.3063 23.0209 28.3075 23.0197 28.3087L22.8631 28.4652C22.8619 28.4665 22.8607 28.4677 22.8594 28.469C22.3426 28.991 22.5538 29.8713 23.2847 29.9574C23.5211 29.9852 23.7597 30 24 30C26.0359 30 27.9541 28.9389 29.4011 27.8587C30.8737 26.7594 32.0089 25.5258 32.5012 24.9577C32.9795 24.4059 32.9795 23.5941 32.5012 23.0423C32.2188 22.7164 31.7248 22.1715 31.0769 21.5586C30.6992 21.2012 30.109 21.2231 29.7399 21.5885ZM22.0325 23.6391C22.1811 22.8239 22.8239 22.1811 23.6391 22.0325L25.4331 20.2384C24.9502 20.0859 24.4692 20 24 20C22.6173 20 21.1319 20.7462 19.7953 21.744C18.7328 22.5372 17.8559 23.42 17.3243 24C17.8195 24.5403 18.6143 25.3433 19.5797 26.0919L22.0325 23.6391Z" fill="#26A9E0"/>
</svg>
