<svg width="48" height="48" viewBox="0 0 48 48" fill="none" xmlns="http://www.w3.org/2000/svg">
  <circle cx="24" cy="24" r="24" fill="#F2F7F9" />
  <g clip-path="url(#clip0_3290_8646)">
    <path d="M19 22H16V29H19V22Z" fill="url(#paint0_linear_3290_8646)" />
    <path d="M25.5 22H22.5V29H25.5V22Z" fill="url(#paint1_linear_3290_8646)" />
    <path d="M34 31H14V34H34V31Z" fill="url(#paint2_linear_3290_8646)" />
    <path d="M32 22H29V29H32V22Z" fill="url(#paint3_linear_3290_8646)" />
    <path d="M24 13L14 18V20H34V18L24 13Z" fill="url(#paint4_linear_3290_8646)" />
  </g>
  <defs>
    <linearGradient id="paint0_linear_3290_8646" x1="16" y1="22" x2="21.069" y2="24.1724"
      gradientUnits="userSpaceOnUse">
      <stop stop-color="#2A4D9B" />
      <stop offset="0.511603" stop-color="#EC8950" />
      <stop offset="1" stop-color="#F6C34C" />
    </linearGradient>
    <linearGradient id="paint1_linear_3290_8646" x1="22.5" y1="22" x2="27.569" y2="24.1724"
      gradientUnits="userSpaceOnUse">
      <stop stop-color="#2A4D9B" />
      <stop offset="0.511603" stop-color="#EC8950" />
      <stop offset="1" stop-color="#F6C34C" />
    </linearGradient>
    <linearGradient id="paint2_linear_3290_8646" x1="14" y1="31" x2="14.8802" y2="36.868"
      gradientUnits="userSpaceOnUse">
      <stop stop-color="#2A4D9B" />
      <stop offset="0.511603" stop-color="#EC8950" />
      <stop offset="1" stop-color="#F6C34C" />
    </linearGradient>
    <linearGradient id="paint3_linear_3290_8646" x1="29" y1="22" x2="34.069" y2="24.1724"
      gradientUnits="userSpaceOnUse">
      <stop stop-color="#2A4D9B" />
      <stop offset="0.511603" stop-color="#EC8950" />
      <stop offset="1" stop-color="#F6C34C" />
    </linearGradient>
    <linearGradient id="paint4_linear_3290_8646" x1="14" y1="13" x2="18.3653" y2="25.4722"
      gradientUnits="userSpaceOnUse">
      <stop stop-color="#2A4D9B" />
      <stop offset="0.511603" stop-color="#EC8950" />
      <stop offset="1" stop-color="#F6C34C" />
    </linearGradient>
    <clipPath id="clip0_3290_8646">
      <rect width="24" height="24" fill="white" transform="translate(12 12)" />
    </clipPath>
  </defs>
</svg>