<svg width="27" height="27" viewBox="0 0 27 27" fill="none" xmlns="http://www.w3.org/2000/svg">
  <path
    d="M13.0071 12C12.6622 12 12.3313 12.1405 12.0874 12.3905C11.8435 12.6406 11.7064 12.9797 11.7064 13.3333V18.6667C11.7064 19.0203 11.8435 19.3594 12.0874 19.6095C12.3313 19.8595 12.6622 20 13.0071 20C13.3521 20 13.683 19.8595 13.9269 19.6095C14.1708 19.3594 14.3079 19.0203 14.3079 18.6667V13.3333C14.3079 12.9797 14.1708 12.6406 13.9269 12.3905C13.683 12.1405 13.3521 12 13.0071 12ZM13.5014 6.77333C13.1847 6.63998 12.8295 6.63998 12.5129 6.77333C12.3532 6.83679 12.2073 6.93195 12.0836 7.05333C11.9687 7.18293 11.8764 7.33175 11.8105 7.49333C11.7377 7.65157 11.702 7.8251 11.7064 8C11.7054 8.17548 11.7382 8.34943 11.803 8.51188C11.8677 8.67432 11.9631 8.82208 12.0836 8.94667C12.2101 9.06444 12.3552 9.15915 12.5129 9.22667C12.7099 9.30965 12.9239 9.34176 13.1358 9.32015C13.3478 9.29854 13.5514 9.2239 13.7287 9.10276C13.9059 8.98162 14.0514 8.81771 14.1524 8.62543C14.2534 8.43315 14.3068 8.21838 14.3079 8C14.3031 7.64698 14.1683 7.30885 13.9306 7.05333C13.8069 6.93195 13.6611 6.83679 13.5014 6.77333ZM13.0071 0C10.4346 0 7.91978 0.781986 5.78076 2.24707C3.64175 3.71216 1.97459 5.79454 0.990115 8.23089C0.00563578 10.6672 -0.251949 13.3481 0.249934 15.9345C0.751818 18.521 1.99063 20.8967 3.80971 22.7614C5.62879 24.6261 7.94644 25.896 10.4696 26.4105C12.9927 26.9249 15.608 26.6609 17.9848 25.6517C20.3615 24.6426 22.3929 22.9336 23.8222 20.7409C25.2514 18.5483 26.0143 15.9704 26.0143 13.3333C26.0143 11.5824 25.6778 9.84856 25.0242 8.23089C24.3705 6.61321 23.4124 5.14336 22.2046 3.90524C20.9967 2.66713 19.5629 1.685 17.9848 1.01494C16.4067 0.344877 14.7153 0 13.0071 0ZM13.0071 24C10.9491 24 8.93725 23.3744 7.22604 22.2023C5.51483 21.0303 4.1811 19.3644 3.39352 17.4153C2.60594 15.4662 2.39987 13.3215 2.80138 11.2524C3.20288 9.18324 4.19393 7.28262 5.64919 5.79086C7.10446 4.2991 8.95858 3.2832 10.9771 2.87162C12.9956 2.46005 15.0878 2.67128 16.9892 3.47862C18.8906 4.28595 20.5158 5.65313 21.6592 7.40725C22.8026 9.16138 23.4128 11.2237 23.4128 13.3333C23.4128 16.1623 22.3165 18.8754 20.3651 20.8758C18.4136 22.8762 15.7669 24 13.0071 24Z"
    fill="#F48034" />
</svg>