<svg width="20" height="20" viewBox="0 0 20 20" fill="none" xmlns="http://www.w3.org/2000/svg">
<path d="M3.39535 7.76205C1.97104 6.33774 1.97104 4.02847 3.39535 2.60416C4.81967 1.17985 7.12893 1.17984 8.55325 2.60416L12.586 6.63695C12.597 6.64791 12.597 6.66567 12.586 6.67662L7.46782 11.7948C7.45687 11.8058 7.4391 11.8058 7.42815 11.7948L3.39535 7.76205Z" fill="url(#paint0_linear_1357_6864)"/>
<path fill-rule="evenodd" clip-rule="evenodd" d="M17.3941 16.6044C18.8184 15.1801 18.8184 12.8708 17.3941 11.4465L13.3613 7.4137C13.3504 7.40274 13.3326 7.40274 13.3217 7.4137L8.20343 12.5319C8.19247 12.5429 8.19247 12.5606 8.20343 12.5716L12.2362 16.6044C13.6605 18.0287 15.9698 18.0287 17.3941 16.6044ZM16.6375 15.7465C17.6314 14.7527 17.6314 13.1413 16.6375 12.1474L13.336 8.8459C13.3276 8.83745 13.3139 8.83745 13.3054 8.8459L9.73685 12.4145C9.7284 12.4229 9.7284 12.4366 9.73685 12.4451L13.0383 15.7465C14.0322 16.7404 15.6436 16.7404 16.6375 15.7465Z" fill="url(#paint1_linear_1357_6864)"/>
<defs>
<linearGradient id="paint0_linear_1357_6864" x1="0.816406" y1="5.18311" x2="12.2431" y2="3.75477" gradientUnits="userSpaceOnUse">
<stop stop-color="#2A4D9B"/>
<stop offset="0.511603" stop-color="#EC8950"/>
<stop offset="1" stop-color="#F6C34C"/>
</linearGradient>
<linearGradient id="paint1_linear_1357_6864" x1="19.9731" y1="14.0254" x2="8.54636" y2="15.4538" gradientUnits="userSpaceOnUse">
<stop stop-color="#2A4D9B"/>
<stop offset="0.511603" stop-color="#EC8950"/>
<stop offset="1" stop-color="#F6C34C"/>
</linearGradient>
</defs>
</svg>
